<svg width="27" height="27" viewBox="0 0 27 27" fill="none" xmlns="http://www.w3.org/2000/svg">
<g clip-path="url(#clip0_1_719)">
<path d="M4.14528 0.263675C3.6443 -0.126559 2.93239 -0.0790983 2.47887 0.369143L0.369499 2.47852C-0.0787425 2.92676 -0.126203 3.63867 0.258757 4.14492L4.4775 9.62929C4.71481 9.94042 5.08922 10.125 5.47945 10.125H8.33238L14.0804 15.873C13.3052 17.4023 13.5531 19.3219 14.8345 20.598L20.7408 26.5043C21.3999 27.1635 22.4705 27.1635 23.1296 26.5043L26.5046 23.1293C27.1638 22.4701 27.1638 21.3996 26.5046 20.7404L20.5984 14.8342C19.3222 13.558 17.4027 13.3049 15.8734 14.0801L10.1253 8.33203V5.48437C10.1253 5.08887 9.94078 4.71972 9.62965 4.48242L4.14528 0.263675ZM1.04977 20.8881C0.380046 21.5578 0.000358984 22.4701 0.000358984 23.4193C0.000358984 25.3969 1.60348 27 3.58102 27C4.53024 27 5.44254 26.6203 6.11227 25.9506L12.3244 19.7385C11.913 18.6363 11.8498 17.4392 12.1345 16.3055L8.88082 13.0517L1.04977 20.8881ZM27.0003 7.59375C27.0003 7.04004 26.9423 6.50215 26.8316 5.98535C26.705 5.39472 25.9826 5.24179 25.5554 5.66894L22.1857 9.03867C22.0275 9.19687 21.8113 9.28652 21.5898 9.28652H18.5628C18.0988 9.28652 17.7191 8.90683 17.7191 8.44277V5.41054C17.7191 5.18906 17.8087 4.97285 17.9669 4.81465L21.3367 1.44492C21.7638 1.01778 21.6109 0.295315 21.0203 0.168753C20.4982 0.0580109 19.9603 3.15034e-06 19.4066 3.15034e-06C15.2142 3.15034e-06 11.8128 3.40137 11.8128 7.59375V7.63593L16.3111 12.1342C18.2095 11.6543 20.3083 12.1605 21.7955 13.6476L22.6234 14.4756C25.2074 13.2627 27.0003 10.6365 27.0003 7.59375ZM2.95348 22.7812C2.95348 22.4456 3.08682 22.1236 3.32417 21.8863C3.56152 21.6489 3.88344 21.5156 4.2191 21.5156C4.55477 21.5156 4.87669 21.6489 5.11404 21.8863C5.35139 22.1236 5.48473 22.4456 5.48473 22.7812C5.48473 23.1169 5.35139 23.4388 5.11404 23.6762C4.87669 23.9135 4.55477 24.0469 4.2191 24.0469C3.88344 24.0469 3.56152 23.9135 3.32417 23.6762C3.08682 23.4388 2.95348 23.1169 2.95348 22.7812Z" fill="#FA7F29"/>
</g>
<defs>
<clipPath id="clip0_1_719">
<path d="M0 0H27V27H0V0Z" fill="white"/>
</clipPath>
</defs>
</svg>
