<svg width="33" height="27" viewBox="0 0 33 27" fill="none" xmlns="http://www.w3.org/2000/svg">
<g clip-path="url(#clip0_1_743)">
<path d="M7.42501 0C8.51903 0 9.56824 0.434597 10.3418 1.20819C11.1154 1.98177 11.55 3.03098 11.55 4.125C11.55 5.21902 11.1154 6.26823 10.3418 7.04182C9.56824 7.81541 8.51903 8.25001 7.42501 8.25001C6.33099 8.25001 5.28178 7.81541 4.50819 7.04182C3.7346 6.26823 3.3 5.21902 3.3 4.125C3.3 3.03098 3.7346 1.98177 4.50819 1.20819C5.28178 0.434597 6.33099 0 7.42501 0ZM26.4 0C27.494 0 28.5433 0.434597 29.3168 1.20819C30.0904 1.98177 30.525 3.03098 30.525 4.125C30.525 5.21902 30.0904 6.26823 29.3168 7.04182C28.5433 7.81541 27.494 8.25001 26.4 8.25001C25.306 8.25001 24.2568 7.81541 23.4832 7.04182C22.7096 6.26823 22.275 5.21902 22.275 4.125C22.275 3.03098 22.7096 1.98177 23.4832 1.20819C24.2568 0.434597 25.306 0 26.4 0ZM0 15.4017C0 12.3647 2.46469 9.90001 5.50172 9.90001H7.70344C8.52329 9.90001 9.30188 10.0805 10.0031 10.4002C9.9361 10.7714 9.90517 11.1581 9.90517 11.55C9.90517 13.5197 10.7714 15.2883 12.1378 16.5C12.1275 16.5 12.1172 16.5 12.1017 16.5H1.09828C0.495 16.5 0 16.005 0 15.4017ZM20.8983 16.5C20.888 16.5 20.8777 16.5 20.8622 16.5C22.2338 15.2883 23.0949 13.5197 23.0949 11.55C23.0949 11.1581 23.0588 10.7766 22.9969 10.4002C23.6981 10.0753 24.4767 9.90001 25.2966 9.90001H27.4983C30.5353 9.90001 33 12.3647 33 15.4017C33 16.0102 32.505 16.5 31.9017 16.5H20.8983ZM11.55 11.55C11.55 10.2372 12.0715 8.97813 12.9998 8.04983C13.9281 7.12152 15.1872 6.60001 16.5 6.60001C17.8128 6.60001 19.0719 7.12152 20.0002 8.04983C20.9285 8.97813 21.45 10.2372 21.45 11.55C21.45 12.8628 20.9285 14.1219 20.0002 15.0502C19.0719 15.9785 17.8128 16.5 16.5 16.5C15.1872 16.5 13.9281 15.9785 12.9998 15.0502C12.0715 14.1219 11.55 12.8628 11.55 11.55ZM6.60001 25.0233C6.60001 21.2283 9.67829 18.15 13.4733 18.15H19.5267C23.3217 18.15 26.4 21.2283 26.4 25.0233C26.4 25.7813 25.7864 26.4 25.0233 26.4H7.97673C7.21876 26.4 6.60001 25.7864 6.60001 25.0233Z" fill="#FA7F29"/>
</g>
<defs>
<clipPath id="clip0_1_743">
<path d="M0 0H33V26.4H0V0Z" fill="white"/>
</clipPath>
</defs>
</svg>
